<mxfile host="app.diagrams.net" modified="2020-09-17T02:16:02.769Z" agent="5.0 (Windows NT 10.0; Win64; x64) AppleWebKit/537.36 (KHTML, like Gecko) Chrome/85.0.4183.102 Safari/537.36" etag="GFA-oDR58mANQEQPeYSA" version="13.7.1" type="github">
  <diagram id="ft0RDTEWMM9qcVWopbNN" name="第 1 页">
    <mxGraphModel dx="2557" dy="967" grid="1" gridSize="10" guides="1" tooltips="1" connect="1" arrows="1" fold="1" page="1" pageScale="1" pageWidth="827" pageHeight="1169" math="0" shadow="1">
      <root>
        <mxCell id="0" />
        <mxCell id="1" parent="0" />
        <mxCell id="yLaftU6mhb7iIhvLTqJX-51" style="edgeStyle=orthogonalEdgeStyle;rounded=0;orthogonalLoop=1;jettySize=auto;html=1;" edge="1" parent="1" source="yLaftU6mhb7iIhvLTqJX-1" target="yLaftU6mhb7iIhvLTqJX-52">
          <mxGeometry relative="1" as="geometry">
            <mxPoint x="-50" y="290" as="targetPoint" />
          </mxGeometry>
        </mxCell>
        <mxCell id="yLaftU6mhb7iIhvLTqJX-56" style="edgeStyle=orthogonalEdgeStyle;rounded=0;orthogonalLoop=1;jettySize=auto;html=1;entryX=0.5;entryY=0;entryDx=0;entryDy=0;" edge="1" parent="1" source="yLaftU6mhb7iIhvLTqJX-1" target="yLaftU6mhb7iIhvLTqJX-27">
          <mxGeometry relative="1" as="geometry" />
        </mxCell>
        <mxCell id="yLaftU6mhb7iIhvLTqJX-57" style="edgeStyle=orthogonalEdgeStyle;rounded=0;orthogonalLoop=1;jettySize=auto;html=1;entryX=0.5;entryY=0;entryDx=0;entryDy=0;" edge="1" parent="1" source="yLaftU6mhb7iIhvLTqJX-1" target="yLaftU6mhb7iIhvLTqJX-18">
          <mxGeometry relative="1" as="geometry" />
        </mxCell>
        <mxCell id="yLaftU6mhb7iIhvLTqJX-59" style="edgeStyle=orthogonalEdgeStyle;rounded=0;orthogonalLoop=1;jettySize=auto;html=1;exitX=0.25;exitY=1;exitDx=0;exitDy=0;entryX=0.5;entryY=0;entryDx=0;entryDy=0;" edge="1" parent="1" source="yLaftU6mhb7iIhvLTqJX-1" target="yLaftU6mhb7iIhvLTqJX-29">
          <mxGeometry relative="1" as="geometry" />
        </mxCell>
        <mxCell id="yLaftU6mhb7iIhvLTqJX-60" style="edgeStyle=orthogonalEdgeStyle;rounded=0;orthogonalLoop=1;jettySize=auto;html=1;exitX=0.75;exitY=1;exitDx=0;exitDy=0;" edge="1" parent="1" source="yLaftU6mhb7iIhvLTqJX-1" target="yLaftU6mhb7iIhvLTqJX-61">
          <mxGeometry relative="1" as="geometry">
            <mxPoint x="670" y="280" as="targetPoint" />
          </mxGeometry>
        </mxCell>
        <mxCell id="yLaftU6mhb7iIhvLTqJX-1" value="Map" style="rounded=0;whiteSpace=wrap;html=1;fillColor=#d5e8d4;strokeColor=#82b366;" vertex="1" parent="1">
          <mxGeometry x="320" y="40" width="120" height="60" as="geometry" />
        </mxCell>
        <mxCell id="yLaftU6mhb7iIhvLTqJX-38" style="edgeStyle=orthogonalEdgeStyle;rounded=0;orthogonalLoop=1;jettySize=auto;html=1;" edge="1" parent="1" source="yLaftU6mhb7iIhvLTqJX-18" target="yLaftU6mhb7iIhvLTqJX-40">
          <mxGeometry relative="1" as="geometry">
            <mxPoint x="927.0000000000005" y="680" as="targetPoint" />
          </mxGeometry>
        </mxCell>
        <mxCell id="yLaftU6mhb7iIhvLTqJX-41" style="edgeStyle=orthogonalEdgeStyle;rounded=0;orthogonalLoop=1;jettySize=auto;html=1;" edge="1" parent="1" source="yLaftU6mhb7iIhvLTqJX-18" target="yLaftU6mhb7iIhvLTqJX-42">
          <mxGeometry relative="1" as="geometry">
            <mxPoint x="1057.0000000000005" y="650" as="targetPoint" />
          </mxGeometry>
        </mxCell>
        <mxCell id="yLaftU6mhb7iIhvLTqJX-43" style="edgeStyle=orthogonalEdgeStyle;rounded=0;orthogonalLoop=1;jettySize=auto;html=1;" edge="1" parent="1" source="yLaftU6mhb7iIhvLTqJX-18" target="yLaftU6mhb7iIhvLTqJX-44">
          <mxGeometry relative="1" as="geometry">
            <mxPoint x="1217.0000000000005" y="650" as="targetPoint" />
          </mxGeometry>
        </mxCell>
        <mxCell id="yLaftU6mhb7iIhvLTqJX-45" style="edgeStyle=orthogonalEdgeStyle;rounded=0;orthogonalLoop=1;jettySize=auto;html=1;" edge="1" parent="1" source="yLaftU6mhb7iIhvLTqJX-18" target="yLaftU6mhb7iIhvLTqJX-46">
          <mxGeometry relative="1" as="geometry">
            <mxPoint x="1498.4285714285713" y="660" as="targetPoint" />
          </mxGeometry>
        </mxCell>
        <mxCell id="yLaftU6mhb7iIhvLTqJX-47" style="edgeStyle=orthogonalEdgeStyle;rounded=0;orthogonalLoop=1;jettySize=auto;html=1;" edge="1" parent="1" source="yLaftU6mhb7iIhvLTqJX-18" target="yLaftU6mhb7iIhvLTqJX-48">
          <mxGeometry relative="1" as="geometry">
            <mxPoint x="1657" y="650" as="targetPoint" />
          </mxGeometry>
        </mxCell>
        <mxCell id="yLaftU6mhb7iIhvLTqJX-18" value="AbstractMap" style="rounded=0;whiteSpace=wrap;html=1;fillColor=#1ba1e2;strokeColor=#006EAF;fontColor=#ffffff;" vertex="1" parent="1">
          <mxGeometry x="997" y="220" width="120" height="60" as="geometry" />
        </mxCell>
        <mxCell id="yLaftU6mhb7iIhvLTqJX-25" style="edgeStyle=orthogonalEdgeStyle;rounded=0;orthogonalLoop=1;jettySize=auto;html=1;exitX=0.5;exitY=1;exitDx=0;exitDy=0;" edge="1" parent="1">
          <mxGeometry relative="1" as="geometry">
            <mxPoint x="-50" y="460" as="sourcePoint" />
            <mxPoint x="-50" y="460" as="targetPoint" />
          </mxGeometry>
        </mxCell>
        <mxCell id="yLaftU6mhb7iIhvLTqJX-27" value="LinkedHashMap" style="whiteSpace=wrap;html=1;fillColor=#dae8fc;strokeColor=#6c8ebf;" vertex="1" parent="1">
          <mxGeometry x="430" y="340" width="120" height="60" as="geometry" />
        </mxCell>
        <mxCell id="yLaftU6mhb7iIhvLTqJX-32" style="edgeStyle=orthogonalEdgeStyle;rounded=0;orthogonalLoop=1;jettySize=auto;html=1;" edge="1" parent="1" source="yLaftU6mhb7iIhvLTqJX-29">
          <mxGeometry relative="1" as="geometry">
            <mxPoint x="440" y="620" as="targetPoint" />
          </mxGeometry>
        </mxCell>
        <mxCell id="yLaftU6mhb7iIhvLTqJX-29" value="SortedMap" style="whiteSpace=wrap;html=1;fillColor=#d5e8d4;strokeColor=#82b366;" vertex="1" parent="1">
          <mxGeometry x="110" y="440" width="120" height="60" as="geometry" />
        </mxCell>
        <mxCell id="yLaftU6mhb7iIhvLTqJX-34" style="edgeStyle=orthogonalEdgeStyle;rounded=0;orthogonalLoop=1;jettySize=auto;html=1;entryX=0.5;entryY=0;entryDx=0;entryDy=0;" edge="1" parent="1" source="yLaftU6mhb7iIhvLTqJX-33" target="yLaftU6mhb7iIhvLTqJX-35">
          <mxGeometry relative="1" as="geometry">
            <mxPoint x="250" y="790" as="targetPoint" />
          </mxGeometry>
        </mxCell>
        <mxCell id="yLaftU6mhb7iIhvLTqJX-71" style="edgeStyle=orthogonalEdgeStyle;rounded=0;orthogonalLoop=1;jettySize=auto;html=1;exitX=0;exitY=0.25;exitDx=0;exitDy=0;entryX=1;entryY=0.5;entryDx=0;entryDy=0;" edge="1" parent="1" source="yLaftU6mhb7iIhvLTqJX-33" target="yLaftU6mhb7iIhvLTqJX-70">
          <mxGeometry relative="1" as="geometry" />
        </mxCell>
        <mxCell id="yLaftU6mhb7iIhvLTqJX-33" value="NavigableMap" style="whiteSpace=wrap;html=1;fillColor=#d5e8d4;strokeColor=#82b366;" vertex="1" parent="1">
          <mxGeometry x="380" y="620" width="120" height="60" as="geometry" />
        </mxCell>
        <mxCell id="yLaftU6mhb7iIhvLTqJX-35" value="TreeMap" style="whiteSpace=wrap;html=1;fillColor=#dae8fc;strokeColor=#6c8ebf;" vertex="1" parent="1">
          <mxGeometry x="380" y="850" width="120" height="60" as="geometry" />
        </mxCell>
        <mxCell id="yLaftU6mhb7iIhvLTqJX-40" value="EnumMap" style="rounded=0;whiteSpace=wrap;html=1;fillColor=#dae8fc;strokeColor=#6c8ebf;" vertex="1" parent="1">
          <mxGeometry x="827.0000000000005" y="680" width="120" height="60" as="geometry" />
        </mxCell>
        <mxCell id="yLaftU6mhb7iIhvLTqJX-42" value="HashMap" style="rounded=0;whiteSpace=wrap;html=1;fillColor=#dae8fc;strokeColor=#6c8ebf;" vertex="1" parent="1">
          <mxGeometry x="997.0000000000005" y="600" width="120" height="60" as="geometry" />
        </mxCell>
        <mxCell id="yLaftU6mhb7iIhvLTqJX-44" value="IdentityHashMap" style="rounded=0;whiteSpace=wrap;html=1;fillColor=#dae8fc;strokeColor=#6c8ebf;" vertex="1" parent="1">
          <mxGeometry x="1157" y="520" width="160" height="60" as="geometry" />
        </mxCell>
        <mxCell id="yLaftU6mhb7iIhvLTqJX-46" value="TreeMap" style="rounded=0;whiteSpace=wrap;html=1;fillColor=#dae8fc;strokeColor=#6c8ebf;" vertex="1" parent="1">
          <mxGeometry x="1386.9985714285715" y="470" width="120" height="60" as="geometry" />
        </mxCell>
        <mxCell id="yLaftU6mhb7iIhvLTqJX-48" value="WeakHashMap" style="rounded=0;whiteSpace=wrap;html=1;fillColor=#dae8fc;strokeColor=#6c8ebf;" vertex="1" parent="1">
          <mxGeometry x="1597" y="430" width="120" height="60" as="geometry" />
        </mxCell>
        <mxCell id="yLaftU6mhb7iIhvLTqJX-64" style="edgeStyle=orthogonalEdgeStyle;rounded=0;orthogonalLoop=1;jettySize=auto;html=1;" edge="1" parent="1" source="yLaftU6mhb7iIhvLTqJX-52" target="yLaftU6mhb7iIhvLTqJX-65">
          <mxGeometry relative="1" as="geometry">
            <mxPoint x="-430" y="390" as="targetPoint" />
          </mxGeometry>
        </mxCell>
        <mxCell id="yLaftU6mhb7iIhvLTqJX-69" style="edgeStyle=orthogonalEdgeStyle;rounded=0;orthogonalLoop=1;jettySize=auto;html=1;exitX=0.5;exitY=1;exitDx=0;exitDy=0;" edge="1" parent="1" source="yLaftU6mhb7iIhvLTqJX-52" target="yLaftU6mhb7iIhvLTqJX-70">
          <mxGeometry relative="1" as="geometry">
            <mxPoint x="-210.33333333333303" y="480" as="targetPoint" />
          </mxGeometry>
        </mxCell>
        <mxCell id="yLaftU6mhb7iIhvLTqJX-52" value="ConcurrentMap" style="rounded=0;whiteSpace=wrap;html=1;fillColor=#d5e8d4;strokeColor=#82b366;" vertex="1" parent="1">
          <mxGeometry x="-270" y="250" width="120" height="60" as="geometry" />
        </mxCell>
        <mxCell id="yLaftU6mhb7iIhvLTqJX-61" value="Hashtable" style="rounded=0;whiteSpace=wrap;html=1;fillColor=#dae8fc;strokeColor=#6c8ebf;" vertex="1" parent="1">
          <mxGeometry x="610" y="250" width="120" height="60" as="geometry" />
        </mxCell>
        <mxCell id="yLaftU6mhb7iIhvLTqJX-63" style="edgeStyle=orthogonalEdgeStyle;rounded=0;orthogonalLoop=1;jettySize=auto;html=1;entryX=0.75;entryY=0;entryDx=0;entryDy=0;" edge="1" parent="1" source="yLaftU6mhb7iIhvLTqJX-62" target="yLaftU6mhb7iIhvLTqJX-61">
          <mxGeometry relative="1" as="geometry" />
        </mxCell>
        <mxCell id="yLaftU6mhb7iIhvLTqJX-62" value="&lt;pre style=&quot;font-family: &amp;#34;jetbrains mono&amp;#34; , monospace ; font-size: 9.8pt&quot;&gt;Dictionary&lt;/pre&gt;" style="rounded=0;whiteSpace=wrap;html=1;fillColor=#dae8fc;strokeColor=#6c8ebf;" vertex="1" parent="1">
          <mxGeometry x="750" y="120" width="120" height="60" as="geometry" />
        </mxCell>
        <mxCell id="yLaftU6mhb7iIhvLTqJX-65" value="ConcurrentHashMap" style="rounded=0;whiteSpace=wrap;html=1;fillColor=#dae8fc;strokeColor=#6c8ebf;" vertex="1" parent="1">
          <mxGeometry x="-490" y="360" width="160" height="60" as="geometry" />
        </mxCell>
        <mxCell id="yLaftU6mhb7iIhvLTqJX-72" style="edgeStyle=orthogonalEdgeStyle;rounded=0;orthogonalLoop=1;jettySize=auto;html=1;exitX=0.5;exitY=1;exitDx=0;exitDy=0;" edge="1" parent="1" source="yLaftU6mhb7iIhvLTqJX-70" target="yLaftU6mhb7iIhvLTqJX-73">
          <mxGeometry relative="1" as="geometry">
            <mxPoint x="-300.33333333333303" y="880.0000000000002" as="targetPoint" />
          </mxGeometry>
        </mxCell>
        <mxCell id="yLaftU6mhb7iIhvLTqJX-70" value="ConcurrentNavigableMap" style="rounded=0;whiteSpace=wrap;html=1;fillColor=#d5e8d4;strokeColor=#82b366;" vertex="1" parent="1">
          <mxGeometry x="-390" y="740" width="179.67" height="60" as="geometry" />
        </mxCell>
        <mxCell id="yLaftU6mhb7iIhvLTqJX-73" value="ConcurrentSkipListMap" style="rounded=0;whiteSpace=wrap;html=1;fillColor=#dae8fc;strokeColor=#6c8ebf;" vertex="1" parent="1">
          <mxGeometry x="-430.33" y="910" width="260.33" height="60" as="geometry" />
        </mxCell>
      </root>
    </mxGraphModel>
  </diagram>
</mxfile>
